<svg width="16" height="16" viewBox="0 0 16 16" fill="none" xmlns="http://www.w3.org/2000/svg">
<g clip-path="url(#clip0_1223_4063)">
<path d="M7.53906 0.625C3.40352 0.625 0.0390625 3.98957 0.0390625 8.125C0.0390625 12.2607 3.40352 15.625 7.53906 15.625C11.6746 15.625 15.0391 12.2607 15.0391 8.125C15.0391 3.98957 11.6746 0.625 7.53906 0.625ZM7.53906 13.8393C4.38827 13.8393 1.82479 11.276 1.82479 8.125C1.82479 4.97421 4.38827 2.41073 7.53906 2.41073C10.6899 2.41073 13.2533 4.97421 13.2533 8.125C13.2533 11.276 10.6899 13.8393 7.53906 13.8393Z" fill="#00FFB8"/>
<path d="M7.61048 4.01636C7.23519 4.01636 6.93094 4.32055 6.93094 4.6959V7.7723L4.76159 9.94165C4.49614 10.2069 4.49614 10.6372 4.76159 10.9027C5.02697 11.168 5.45722 11.168 5.72265 10.9027L8.29008 8.33533V7.63906V4.6959C8.29008 4.32055 7.98583 4.01636 7.61048 4.01636Z" fill="#00FFB8"/>
</g>
<defs>
<clipPath id="clip0_1223_4063">
<rect width="15" height="15" fill="white" transform="translate(0.0390625 0.625)"/>
</clipPath>
</defs>
</svg>
